# xmcd CD database file
# Copyright (C) 1995-1998 Ti Kan
#
# Track frame offsets:
#	180
#	16666
#	28663
#	40791
#	53092
#	66993
#	78525
#	93511
#	106957
#	123695
#	135243
#	154537
#	165738
#	180237
#	194969
#	212649
#	228346
#	242966
#	257419
#	275372
#	295398
#	307296
#
# Disc length: 4262 seconds
#
# Revision: 1
# Processed by: cddbd v1.4PL0 Copyright (c) Steve Scherf et al.
# Submitted via: CDex 1.30Release
#
DISCID=3710a416
DTITLE=FOREVER LOVE SONG - FOREVER LOVE SONG V
DYEAR=1900
DGENRE=Blues
TTITLE0=UNCHAINED MELODY - THE RIGHTEOUS BROTHERS
TTITLE1=SMOKE GETS IN YOUR EYES - THE PLATTERS
TTITLE2=CALIFORNIA DREAMING - THE MAMAS and THE PAPAS
TTITLE3=THE TWELFTH OF NEVER - DOBBY OSMOND
TTITLE4=ALL KIND OF EVERYTHING - DONA
TTITLE5=HELP ME MAKE IT THROUGH THE NIGHT - SAMMI SMITH
TTITLE6=RELEASE ME - ENGELBERT HUMPERDINCK
TTITLE7=9,999,999 TEARS - DICKEY LEE
TTITLE8=YEASTERDAY WHEN I WAS YOUNG - GLEN CAMPBELL
TTITLE9=WHERE DID ALL THE GOOD TIMES GO - CLASSICS IV
TTITLE10=REFLECTION OF MY LIFE - THE MARMALADE
TTITLE11=THE HAPPIEST GIRL IN THE WHOLE U.S.A. - FONNA FARGO
TTITLE12=EL CONDER PASA - ANDY WILLIAMS
TTITLE13=(PART OF GME) 4:55 - WYNNERS
TTITLE14=CHILD - FREDDIE AGUILAR
TTITLE15=LEAVING ON A JET PLANE - PETER, PAUL and MARY
TTITLE16=GREEN GREEN GRASS OF HOME - JOHNY PAYCHECK
TTITLE17=GUANTANAMERA - THE SANDPIPERS
TTITLE18=HONEY - BOBBY GOLDBORO
TTITLE19=AMAZING GRACE - GLEN CAMPBELL
TTITLE20=HELLO DARLING - LYNN ANDERSON
TTITLE21=MICHAEL (ROW THE BOAT ASHORE) - THE HIGHWAYMEN
EXTD=ID3G:   0
EXTT0=
EXTT1=
EXTT2=
EXTT3=
EXTT4=
EXTT5=
EXTT6=
EXTT7=
EXTT8=
EXTT9=
EXTT10=
EXTT11=
EXTT12=
EXTT13=
EXTT14=
EXTT15=
EXTT16=
EXTT17=
EXTT18=
EXTT19=
EXTT20=
EXTT21=
PLAYORDER=
